<svg width="65px" height="62px" viewBox="0 0 65 62" version="1.1" xmlns="http://www.w3.org/2000/svg" xmlns:xlink="http://www.w3.org/1999/xlink">
    <path fill="#262A31" d="M63.8989278,0 L0,0 L0,42.6051282 L10.8834719,42.6051282 C10.0295499,46.2971487 10.1124894,49.3187744 10.2540029,50.8717949 L0,50.8717949 L0,62 L1.93633114,62 L1.93633114,52.7794872 L61.9625966,52.7794872 L61.9625966,62 L63.8989278,62 L63.8989278,50.8717949 L53.5765078,50.8717949 C53.7180213,49.3187744 53.8009609,46.2971487 52.9468775,42.6051282 L63.8989278,42.6051282 L63.8989278,0 Z M12.2016293,50.8717949 C12.0325231,49.1637744 11.8726144,44.8411026 13.7297173,39.8230769 C14.8524667,36.7892103 20.1820568,34.6190513 22.824342,33.8184564 C24.7719684,37.2391077 27.9670762,39.2137282 32.0041652,39.2137282 C36.0228592,39.2137282 39.2066717,37.2564359 41.1567185,33.864559 C43.8461211,34.7002872 48.9993437,36.8461231 50.1007934,39.8230769 C51.9503124,44.8207538 51.7937923,49.1590051 51.6271064,50.8717949 L12.2016293,50.8717949 L12.2016293,50.8717949 Z M38.9526896,33.7443744 C37.2956742,36.1076872 34.957877,37.3060359 32.0040039,37.3060359 C29.0501307,37.3060359 26.7123336,36.1076872 25.0553182,33.7443744 C23.5010897,31.5276359 22.64507,28.3133333 22.64507,24.6939641 C22.64507,14.2267744 26.3863845,12.0820513 32.0040039,12.0820513 C37.6216233,12.0820513 41.3629377,14.2267744 41.3629377,24.6939641 C41.3629377,28.3134923 40.5070794,31.5276359 38.9526896,33.7443744 Z M61.9625966,40.6974359 L52.6036628,40.6974359 L52.6036628,41.2702205 C52.4098683,40.5864718 52.1849312,39.8855538 51.9199765,39.1696923 C50.4674054,35.2438205 44.5246438,32.9464821 41.9954726,32.1295128 C42.8411652,30.0278718 43.2992689,27.5225949 43.2992689,24.6941231 C43.2992689,19.4044103 42.4114611,15.847359 40.5053044,13.4999436 C38.6883804,11.2620615 35.9074861,10.174359 32.0040039,10.174359 C28.1005217,10.174359 25.3197888,11.2620615 23.5027033,13.4997846 C21.5965467,15.8472 20.7087389,19.4042513 20.7087389,24.6939641 C20.7087389,27.4998615 21.1590972,29.9881282 21.991881,32.0794359 C19.5609786,32.8493487 13.394248,35.160041 11.9103729,39.1696923 C11.6765609,39.8014564 11.4732461,40.4220923 11.295265,41.0292154 L11.295265,40.6974359 L1.93633114,40.6974359 L1.93633114,1.90769231 L61.9625966,1.90769231 L61.9625966,40.6974359 Z"/>
</svg>