<svg width="63px" height="63px" viewBox="0 0 78 78" version="1.1" xmlns="http://www.w3.org/2000/svg" xmlns:xlink="http://www.w3.org/1999/xlink">
    <g stroke="none" stroke-width="1" fill="none" fill-rule="evenodd">
        <g stroke="#262A31" stroke-width="2">
			<polyline points="74.6769626 24.8704663 37.3384813 1 1 24.8704663"/>
			<path d="M67.5264041,41.5164757 C67.5264041,47.2397917 64.9333243,51.8791052 59.7475538,51.8791052 C54.5615888,51.8791052 51.9687035,47.2397917 51.9687035,41.5164757 C51.9687035,33.744455 54.5615888,31.1538462 59.7475538,31.1538462 C64.9333243,31.1538462 67.5264041,33.744455 67.5264041,41.5164757 Z"/>
			<path d="M52.8724563,47.3076923 C52.8724563,47.3076923 46.2956329,49.0468762 45.0395431,52.4891042"/>
			<path d="M65.8270245,47.3076923 C65.8270245,47.3076923 72.4038479,49.0468762 73.6597433,52.4891042 C75.5505873,57.6703218 74.7672571,61.9072389 74.7672571,61.9072389"/>
			<path d="M23.6417211,41.5164757 C23.6417211,47.2397917 21.0486413,51.8791052 15.8628708,51.8791052 C10.6771003,51.8791052 8.08402055,47.2397917 8.08402055,41.5164757 C8.08402055,33.744455 10.6771003,31.1538462 15.8628708,31.1538462 C21.0486413,31.1538462 23.6417211,33.744455 23.6417211,41.5164757 Z"/>
			<path d="M9.10119235,47.3076923 C9.10119235,47.3076923 2.52436892,49.0468762 1.26827907,52.4889099 C-0.622370487,57.6703218 0.160765264,61.9070446 0.160765264,61.9070446"/>
			<path d="M23.0972016,47.3076923 C23.0972016,47.3076923 29.674025,49.0468762 30.9299204,52.4889099"/>
			<path d="M47.5220734,62.0383768 C47.5220734,68.8993224 44.4134503,74.4611748 38.1967877,74.4611748 C31.980125,74.4611748 28.871502,68.8993224 28.871502,62.0383768 C28.871502,52.7212784 31.980125,49.6153846 38.1967877,49.6153846 C44.4134503,49.6153846 47.5220734,52.7212784 47.5220734,62.0383768 Z"/>
			<path d="M30.1777205,69.2307692 C30.1777205,69.2307692 22.2934668,71.3156138 20.7874814,75.4419739"/>
			<path d="M46.1944031,69.2307692 C46.1944031,69.2307692 54.0786568,71.3156138 55.5842533,75.4419739"/>
        </g>
    </g>
</svg>