<svg width="65px" height="64px" viewBox="0 0 65 64" version="1.1" xmlns="http://www.w3.org/2000/svg" xmlns:xlink="http://www.w3.org/1999/xlink">
    <g fill="#262A31">
        <path d="M63.953794,57.0068571 C63.2242588,55.0066939 60.6262186,53.8050612 59.1055779,53.2569796 C59.4408668,52.2285714 59.6208417,51.0483265 59.6208417,49.741551 C59.6208417,44.2463673 57.7067714,41.7959184 53.4148116,41.7959184 C49.1228518,41.7959184 47.2087814,44.2463673 47.2087814,49.741551 C47.2087814,51.0723265 47.3949623,52.2724898 47.7421734,53.3139592 C47.1553769,53.5732245 46.3365075,53.9567347 45.4786055,54.4280816 C44.3079523,55.0711837 43.3873367,55.6968163 42.7051633,56.3137959 C41.7035427,54.724898 39.5369849,53.7386122 38.2010553,53.2569796 C38.5363442,52.2285714 38.7163191,51.0483265 38.7163191,49.741551 C38.7163191,44.2463673 36.8022487,41.7959184 32.5102889,41.7959184 C28.2183291,41.7959184 26.3042588,44.2463673 26.3042588,49.741551 C26.3042588,51.0360816 26.4811307,52.2063673 26.8102136,53.2279184 C25.4920854,53.6950204 23.2788191,54.6782041 22.2471482,56.2782041 C21.5625251,55.6718367 20.6446859,55.0571429 19.4830151,54.4259592 C18.651897,53.9742041 17.8560553,53.603102 17.2687688,53.3448163 C17.6226759,52.2963265 17.8119598,51.0853878 17.8119598,49.7417143 C17.8119598,44.2465306 15.8978894,41.7960816 11.6059296,41.7960816 C7.31396985,41.7960816 5.3998995,44.2465306 5.3998995,49.7417143 C5.3998995,51.0362449 5.57677136,52.2065306 5.90585427,53.2280816 C4.39811558,53.762449 1.71939698,54.9717551 0.976959799,57.0070204 C-0.369258794,60.698449 0.166582915,63.7245714 0.189937186,63.8515918 L2.11772613,63.4986122 C2.11315327,63.4724898 1.66403266,60.8432653 2.81835427,57.6780408 C3.23644472,56.5317551 5.21878141,55.5286531 6.73076633,55.0145306 C7.81208543,56.7139592 9.50077889,57.6871837 11.6059296,57.6871837 C13.6722111,57.6871837 15.336407,56.7485714 16.4198492,55.1069388 C18.3174246,55.9288163 20.611696,57.2058776 21.4798869,58.2839184 C20.6556281,61.3727347 21.0738819,63.7394286 21.0944598,63.8514286 L23.0222487,63.498449 C23.0178392,63.4736327 22.6119975,61.0912653 23.5672362,58.1332245 L23.6216206,58.1133061 C23.6137814,58.0915918 23.6031658,58.0697143 23.5946734,58.048 C23.6351759,57.9253878 23.6771482,57.8021224 23.7225503,57.6777143 C24.1406407,56.5314286 26.1229774,55.5283265 27.6349623,55.0142041 C28.7162814,56.7136327 30.4049749,57.6868571 32.5101256,57.6868571 C34.602701,57.6868571 36.283392,56.7245714 37.3655276,55.0440816 C37.7491583,55.1782857 38.2417211,55.3686531 38.7563317,55.6158367 C40.0852387,56.2543673 40.9558794,56.9866122 41.2078769,57.677551 C42.3621985,60.8427755 41.9130779,63.472 41.908995,63.4951837 L43.836294,63.851102 C43.8567085,63.7397551 44.2700628,61.4058776 43.4688317,58.348898 C44.2971734,57.2452245 46.6585678,55.9167347 48.5829271,55.0793469 C49.6657161,56.7377959 51.337098,57.6866939 53.4148116,57.6866939 C55.5073869,57.6866939 57.1880779,56.7244082 58.2702136,55.0439184 C58.6538442,55.1781224 59.146407,55.3684898 59.6610176,55.6156735 C60.9899246,56.2542041 61.8605653,56.986449 62.1125628,57.6773878 C63.2668844,60.8426122 62.8177638,63.4718367 62.8136809,63.4950204 L64.7409799,63.8509388 C64.7643342,63.7244082 65.3000126,60.6982857 63.953794,57.0068571 Z M11.6057663,55.7278367 C8.47498744,55.7278367 7.35953518,52.6355918 7.35953518,49.741551 C7.35953518,45.9500408 8.05428392,43.755102 11.6057663,43.755102 C14.2951005,43.755102 15.8519975,44.7346939 15.8519975,49.741551 C15.8519975,52.6355918 14.7365452,55.7278367 11.6057663,55.7278367 Z M32.5102889,55.7278367 C29.3795101,55.7278367 28.2640578,52.6355918 28.2640578,49.741551 C28.2640578,45.9500408 28.9588065,43.755102 32.5102889,43.755102 C35.1996231,43.755102 36.7565201,44.7346939 36.7565201,49.741551 C36.7565201,52.6355918 35.6410678,55.7278367 32.5102889,55.7278367 Z M53.4148116,55.7278367 C50.2840327,55.7278367 49.1685804,52.6355918 49.1685804,49.741551 C49.1685804,45.9500408 49.8633291,43.755102 53.4148116,43.755102 C56.1041457,43.755102 57.6610427,44.7346939 57.6610427,49.741551 C57.6610427,52.6355918 56.5455905,55.7278367 53.4148116,55.7278367 Z"/>
        <path d="M64.8366834,0 L0.163316583,0 L0.163316583,33.3061224 L64.8366834,33.3061224 L64.8366834,0 Z M62.8768844,31.3469388 L2.12311558,31.3469388 L2.12311558,1.95918367 L62.8768844,1.95918367 L62.8768844,31.3469388 Z"/>
    </g>
</svg>