<svg width="67px" height="65px" viewBox="0 0 67 65" version="1.1" xmlns="http://www.w3.org/2000/svg" xmlns:xlink="http://www.w3.org/1999/xlink">
    <path fill="#262A31" d="M66,21.273933 L59.6651667,21.273933 C59.7191667,20.0204428 59.6276667,17.8922351 58.7471667,15.484643 C58.0028333,13.4485108 55.3513333,12.225103 53.7996667,11.6671653 C54.1418333,10.6202633 54.3255,9.41879404 54.3255,8.08851881 C54.3255,2.49468156 52.3721667,0 47.9921667,0 C43.6121667,0 41.6588333,2.49451536 41.6588333,8.08851881 C41.6588333,9.40632895 41.8391667,10.5974937 42.1751667,11.6375814 C40.6366667,12.1815583 37.9028333,13.4126114 37.1451667,15.484643 C36.265,17.8924013 36.1735,20.0204428 36.2275,21.273933 L29.7726667,21.273933 C29.8266667,20.0204428 29.7351667,17.8924013 28.855,15.484643 C28.1105,13.4485108 25.459,12.2252692 23.9071667,11.6673315 C24.2493333,10.6204295 24.433,9.41896024 24.433,8.08868502 C24.433,2.49468156 22.4796667,0.000166201303 18.0996667,0.000166201303 C13.7196667,0.000166201303 11.7663333,2.49468156 11.7663333,8.08868502 C11.7663333,9.40649515 11.9466667,10.5978261 12.2826667,11.6377476 C10.744,12.1817245 8.01033333,13.4127776 7.25266667,15.484643 C6.37233333,17.8924013 6.28083333,20.0204428 6.33483333,21.273933 L0,21.273933 L0,55.1789988 L10.0648333,55.1789988 C8.87283333,55.8499535 7.70716667,56.7893232 7.25266667,58.0321766 C5.87866667,61.789988 6.42566667,64.8705292 6.4495,64.9998338 L8.41683333,64.6405066 C8.41216667,64.6139144 7.95366667,61.9375748 9.13183333,58.7154301 C9.5585,57.5485308 11.5816667,56.52739 13.1245,56.0040221 C14.2281667,57.7340114 15.9513333,58.7247374 18.0996667,58.7247374 C20.2373333,58.7247374 21.9538333,57.7434849 23.058,56.0294509 C24.5908333,56.5601316 26.5561667,57.5673115 26.976,58.7154301 C28.154,61.9375748 27.6955,64.6139144 27.6913333,64.6376812 L29.6581667,65 C29.6821667,64.8706954 30.229,61.7903204 28.8551667,58.0323428 C28.4006667,56.7894894 27.2351667,55.8501197 26.043,55.179165 L39.9573333,55.179165 C38.7653333,55.8501197 37.5996667,56.7894894 37.1451667,58.0323428 C35.7713333,61.7901542 36.3183333,64.8706954 36.3421667,65 L38.3095,64.6406728 C38.3048333,64.6140806 37.8463333,61.937741 39.0241667,58.7155963 C39.451,57.548697 41.4741667,56.52739 43.017,56.0040221 C44.1206667,57.7340114 45.8438333,58.7247374 47.9923333,58.7247374 C50.1278333,58.7247374 51.843,57.7451469 52.9473333,56.0344369 C53.3388333,56.1712206 53.8415,56.3648451 54.3666667,56.6166401 C55.7228333,57.2666534 56.6111667,58.0120662 56.8683333,58.7155963 C58.0465,61.937741 57.588,64.6140806 57.5838333,64.6376812 L59.5506667,65 C59.5746667,64.8706954 60.1215,61.7901542 58.7473333,58.032509 C58.293,56.7896556 57.1275,55.8502859 55.9355,55.1793312 L66,55.1793312 L66,21.273933 Z M47.9921667,1.99458184 C50.7366667,1.99458184 52.3255,2.99178966 52.3255,8.08868502 C52.3255,11.0347693 51.1871667,14.1827882 47.9921667,14.1827882 C44.7971667,14.1827882 43.6588333,11.0347693 43.6588333,8.08868502 C43.6588333,4.22899216 44.368,1.99458184 47.9921667,1.99458184 Z M39.0241667,16.1678966 C39.451,15.0009972 41.4741667,13.9796902 43.017,13.4563223 C44.1206667,15.1863117 45.8438333,16.1770376 47.9923333,16.1770376 C50.1278333,16.1770376 51.843,15.1974471 52.9473333,13.4867371 C53.3388333,13.6235208 53.8415,13.8171453 54.3666667,14.0689403 C55.7228333,14.7189536 56.6111667,15.4643664 56.8683333,16.1678966 C57.6576667,18.3265191 57.7121667,20.2388313 57.6611667,21.273933 L38.2316667,21.273933 C38.1805,20.2376679 38.2351667,18.3258543 39.0241667,16.1678966 Z M18.0996667,1.99458184 C20.8441667,1.99458184 22.433,2.99178966 22.433,8.08868502 C22.433,11.0347693 21.2946667,14.182622 18.0996667,14.182622 C14.9046667,14.182622 13.7663333,11.0347693 13.7663333,8.08868502 C13.7663333,4.22899216 14.4753333,1.99458184 18.0996667,1.99458184 Z M9.13183333,16.1677304 C9.5585,15.000831 11.5816667,13.9796902 13.1245,13.4563223 C14.2281667,15.1863117 15.9513333,16.1770376 18.0996667,16.1770376 C20.2373333,16.1770376 21.9538333,15.1957851 23.058,13.4817511 C24.5908333,14.0124319 26.5561667,15.0196118 26.976,16.1677304 C27.7651667,18.3263529 27.8196667,20.2386651 27.7685,21.273933 L8.33916667,21.273933 C8.288,20.2376679 8.34266667,18.3258543 9.13183333,16.1677304 Z M18.0996667,56.7301556 C14.9046667,56.7301556 13.7663333,53.5823029 13.7663333,50.6362186 C13.7663333,46.7765257 14.4753333,44.5421154 18.0996667,44.5421154 C20.8441667,44.5421154 22.433,45.5393232 22.433,50.6362186 C22.433,53.5823029 21.2946667,56.7301556 18.0996667,56.7301556 Z M47.9921667,56.7301556 C44.7971667,56.7301556 43.6588333,53.5821367 43.6588333,50.6360524 C43.6588333,46.7765257 44.3678333,44.5419492 47.9921667,44.5419492 C50.7366667,44.5419492 52.3255,45.539157 52.3255,50.6360524 C52.3255,53.5821367 51.1871667,56.7301556 47.9921667,56.7301556 Z M64,53.1845832 L54.0751667,53.1845832 C54.2395,52.4011102 54.3255,51.5488299 54.3255,50.6362186 C54.3255,45.0423813 52.3721667,42.5476998 47.9921667,42.5476998 C43.6121667,42.5476998 41.6588333,45.0422151 41.6588333,50.6362186 C41.6588333,51.5488299 41.745,52.4012764 41.9091667,53.1845832 L24.1825,53.1845832 C24.3468333,52.4011102 24.4328333,51.5488299 24.4328333,50.6362186 C24.4328333,45.0422151 22.4795,42.5476998 18.0995,42.5476998 C13.7195,42.5476998 11.7661667,45.0422151 11.7661667,50.6362186 C11.7661667,51.5488299 11.8523333,52.4011102 12.0165,53.1845832 L2,53.1845832 L2,23.2683486 L64,23.2683486 L64,53.1845832 Z"/>
</svg>